<mxfile host="app.diagrams.net" modified="2023-10-14T21:17:07.701Z" agent="Mozilla/5.0 (Windows NT 10.0; Win64; x64) AppleWebKit/537.36 (KHTML, like Gecko) Chrome/118.0.0.0 Safari/537.36" etag="ziZa_iYXSu6oH1fBOmZ3" version="22.0.4" type="github">
  <diagram name="Страница — 1" id="ZRQBWw8bUsasbf3QWrvr">
    <mxGraphModel dx="2901" dy="2319" grid="1" gridSize="10" guides="1" tooltips="1" connect="1" arrows="1" fold="1" page="1" pageScale="1" pageWidth="827" pageHeight="1169" math="0" shadow="0">
      <root>
        <mxCell id="0" />
        <mxCell id="1" parent="0" />
        <mxCell id="2nMfQo5Wa2FI_99OlQ16-1" value="user" style="rounded=0;whiteSpace=wrap;html=1;" parent="1" vertex="1">
          <mxGeometry x="280" y="160" width="80" height="40" as="geometry" />
        </mxCell>
        <mxCell id="2nMfQo5Wa2FI_99OlQ16-7" value="" style="endArrow=none;html=1;rounded=0;entryX=0;entryY=0.5;entryDx=0;entryDy=0;exitX=1;exitY=0.5;exitDx=0;exitDy=0;" parent="1" edge="1" target="2nMfQo5Wa2FI_99OlQ16-1" source="2nMfQo5Wa2FI_99OlQ16-50">
          <mxGeometry width="50" height="50" relative="1" as="geometry">
            <mxPoint x="230" y="177" as="sourcePoint" />
            <mxPoint x="280" y="177" as="targetPoint" />
          </mxGeometry>
        </mxCell>
        <mxCell id="2nMfQo5Wa2FI_99OlQ16-14" value="access" style="rhombus;whiteSpace=wrap;html=1;" parent="1" vertex="1">
          <mxGeometry x="280" y="280" width="80" height="45" as="geometry" />
        </mxCell>
        <mxCell id="2nMfQo5Wa2FI_99OlQ16-15" value="" style="endArrow=none;html=1;rounded=0;entryX=0.5;entryY=1;entryDx=0;entryDy=0;exitX=0.5;exitY=0;exitDx=0;exitDy=0;" parent="1" source="2nMfQo5Wa2FI_99OlQ16-14" target="2nMfQo5Wa2FI_99OlQ16-1" edge="1">
          <mxGeometry width="50" height="50" relative="1" as="geometry">
            <mxPoint x="300" y="260" as="sourcePoint" />
            <mxPoint x="350" y="210" as="targetPoint" />
          </mxGeometry>
        </mxCell>
        <mxCell id="2nMfQo5Wa2FI_99OlQ16-16" value="user&#39;s&lt;br&gt;playlist" style="rounded=0;whiteSpace=wrap;html=1;" parent="1" vertex="1">
          <mxGeometry x="280" y="380" width="80" height="40" as="geometry" />
        </mxCell>
        <mxCell id="2nMfQo5Wa2FI_99OlQ16-17" value="" style="endArrow=none;html=1;rounded=0;entryX=0.5;entryY=1;entryDx=0;entryDy=0;" parent="1" target="2nMfQo5Wa2FI_99OlQ16-14" edge="1">
          <mxGeometry width="50" height="50" relative="1" as="geometry">
            <mxPoint x="320" y="380" as="sourcePoint" />
            <mxPoint x="370" y="330" as="targetPoint" />
          </mxGeometry>
        </mxCell>
        <mxCell id="2nMfQo5Wa2FI_99OlQ16-18" value="0,N" style="text;html=1;strokeColor=none;fillColor=none;align=center;verticalAlign=middle;whiteSpace=wrap;rounded=0;" parent="1" vertex="1">
          <mxGeometry x="302" y="220" width="60" height="30" as="geometry" />
        </mxCell>
        <mxCell id="2nMfQo5Wa2FI_99OlQ16-19" value="1,1" style="text;html=1;strokeColor=none;fillColor=none;align=center;verticalAlign=middle;whiteSpace=wrap;rounded=0;" parent="1" vertex="1">
          <mxGeometry x="300" y="340" width="60" height="30" as="geometry" />
        </mxCell>
        <mxCell id="2nMfQo5Wa2FI_99OlQ16-20" value="contain" style="rhombus;whiteSpace=wrap;html=1;" parent="1" vertex="1">
          <mxGeometry x="478" y="460.5" width="80" height="45" as="geometry" />
        </mxCell>
        <mxCell id="2nMfQo5Wa2FI_99OlQ16-21" value="" style="endArrow=none;html=1;rounded=0;entryX=0;entryY=0.5;entryDx=0;entryDy=0;exitX=0.5;exitY=1;exitDx=0;exitDy=0;" parent="1" source="2nMfQo5Wa2FI_99OlQ16-16" target="2nMfQo5Wa2FI_99OlQ16-20" edge="1">
          <mxGeometry width="50" height="50" relative="1" as="geometry">
            <mxPoint x="360" y="400" as="sourcePoint" />
            <mxPoint x="410" y="350" as="targetPoint" />
            <Array as="points">
              <mxPoint x="320" y="483" />
            </Array>
          </mxGeometry>
        </mxCell>
        <mxCell id="2nMfQo5Wa2FI_99OlQ16-22" value="" style="endArrow=none;html=1;rounded=0;entryX=0.5;entryY=1;entryDx=0;entryDy=0;exitX=1;exitY=0.5;exitDx=0;exitDy=0;" parent="1" source="2nMfQo5Wa2FI_99OlQ16-20" edge="1">
          <mxGeometry width="50" height="50" relative="1" as="geometry">
            <mxPoint x="446" y="508" as="sourcePoint" />
            <mxPoint x="706" y="398" as="targetPoint" />
            <Array as="points">
              <mxPoint x="706" y="483" />
            </Array>
          </mxGeometry>
        </mxCell>
        <mxCell id="2nMfQo5Wa2FI_99OlQ16-23" value="0,N" style="text;html=1;strokeColor=none;fillColor=none;align=center;verticalAlign=middle;whiteSpace=wrap;rounded=0;" parent="1" vertex="1">
          <mxGeometry x="606" y="460.5" width="60" height="30" as="geometry" />
        </mxCell>
        <mxCell id="2nMfQo5Wa2FI_99OlQ16-24" value="0,1" style="text;html=1;strokeColor=none;fillColor=none;align=center;verticalAlign=middle;whiteSpace=wrap;rounded=0;" parent="1" vertex="1">
          <mxGeometry x="383" y="460.5" width="60" height="30" as="geometry" />
        </mxCell>
        <mxCell id="2nMfQo5Wa2FI_99OlQ16-28" value="name" style="ellipse;whiteSpace=wrap;html=1;" parent="1" vertex="1">
          <mxGeometry x="791" y="358.5" width="70" height="40" as="geometry" />
        </mxCell>
        <mxCell id="2nMfQo5Wa2FI_99OlQ16-31" value="lyrics" style="ellipse;whiteSpace=wrap;html=1;" parent="1" vertex="1">
          <mxGeometry x="791" y="422" width="70" height="40" as="geometry" />
        </mxCell>
        <mxCell id="2nMfQo5Wa2FI_99OlQ16-36" value="" style="endArrow=none;html=1;rounded=0;exitX=0;exitY=0.5;exitDx=0;exitDy=0;" parent="1" source="2nMfQo5Wa2FI_99OlQ16-31" edge="1">
          <mxGeometry width="50" height="50" relative="1" as="geometry">
            <mxPoint x="771" y="446" as="sourcePoint" />
            <mxPoint x="771" y="316" as="targetPoint" />
            <Array as="points">
              <mxPoint x="771" y="442" />
            </Array>
          </mxGeometry>
        </mxCell>
        <mxCell id="2nMfQo5Wa2FI_99OlQ16-38" value="song ID" style="ellipse;whiteSpace=wrap;html=1;" parent="1" vertex="1">
          <mxGeometry x="791" y="236" width="70" height="40" as="geometry" />
        </mxCell>
        <mxCell id="2nMfQo5Wa2FI_99OlQ16-39" value="" style="endArrow=none;html=1;rounded=0;entryX=0;entryY=0.5;entryDx=0;entryDy=0;" parent="1" target="2nMfQo5Wa2FI_99OlQ16-38" edge="1">
          <mxGeometry width="50" height="50" relative="1" as="geometry">
            <mxPoint x="771" y="316" as="sourcePoint" />
            <mxPoint x="781" y="326" as="targetPoint" />
            <Array as="points">
              <mxPoint x="771" y="256" />
            </Array>
          </mxGeometry>
        </mxCell>
        <mxCell id="2nMfQo5Wa2FI_99OlQ16-42" value="admin" style="rounded=0;whiteSpace=wrap;html=1;" parent="1" vertex="1">
          <mxGeometry x="666" y="160" width="80" height="40" as="geometry" />
        </mxCell>
        <mxCell id="2nMfQo5Wa2FI_99OlQ16-43" value="edit" style="rhombus;whiteSpace=wrap;html=1;" parent="1" vertex="1">
          <mxGeometry x="666" y="251" width="80" height="45" as="geometry" />
        </mxCell>
        <mxCell id="2nMfQo5Wa2FI_99OlQ16-44" value="" style="endArrow=none;html=1;rounded=0;entryX=0.5;entryY=1;entryDx=0;entryDy=0;exitX=0.5;exitY=0;exitDx=0;exitDy=0;" parent="1" source="2nMfQo5Wa2FI_99OlQ16-43" target="2nMfQo5Wa2FI_99OlQ16-42" edge="1">
          <mxGeometry width="50" height="50" relative="1" as="geometry">
            <mxPoint x="636" y="338" as="sourcePoint" />
            <mxPoint x="686" y="288" as="targetPoint" />
          </mxGeometry>
        </mxCell>
        <mxCell id="2nMfQo5Wa2FI_99OlQ16-45" value="" style="endArrow=none;html=1;rounded=0;entryX=0.5;entryY=0;entryDx=0;entryDy=0;exitX=0.5;exitY=1;exitDx=0;exitDy=0;" parent="1" source="2nMfQo5Wa2FI_99OlQ16-43" edge="1">
          <mxGeometry width="50" height="50" relative="1" as="geometry">
            <mxPoint x="716" y="261" as="sourcePoint" />
            <mxPoint x="706" y="358" as="targetPoint" />
          </mxGeometry>
        </mxCell>
        <mxCell id="2nMfQo5Wa2FI_99OlQ16-46" value="1,N" style="text;html=1;strokeColor=none;fillColor=none;align=center;verticalAlign=middle;whiteSpace=wrap;rounded=0;" parent="1" vertex="1">
          <mxGeometry x="688" y="310" width="60" height="30" as="geometry" />
        </mxCell>
        <mxCell id="2nMfQo5Wa2FI_99OlQ16-47" value="0, N" style="text;html=1;strokeColor=none;fillColor=none;align=center;verticalAlign=middle;whiteSpace=wrap;rounded=0;" parent="1" vertex="1">
          <mxGeometry x="690" y="209" width="60" height="30" as="geometry" />
        </mxCell>
        <mxCell id="2nMfQo5Wa2FI_99OlQ16-50" value="user id" style="ellipse;whiteSpace=wrap;html=1;" parent="1" vertex="1">
          <mxGeometry x="160" y="160" width="70" height="40" as="geometry" />
        </mxCell>
        <mxCell id="2nMfQo5Wa2FI_99OlQ16-55" value="person id" style="ellipse;whiteSpace=wrap;html=1;" parent="1" vertex="1">
          <mxGeometry x="711.5" y="80" width="70" height="40" as="geometry" />
        </mxCell>
        <mxCell id="2nMfQo5Wa2FI_99OlQ16-65" value="amount of&lt;br&gt;songs" style="ellipse;whiteSpace=wrap;html=1;" parent="1" vertex="1">
          <mxGeometry x="160" y="440" width="70" height="40" as="geometry" />
        </mxCell>
        <mxCell id="2nMfQo5Wa2FI_99OlQ16-66" value="name" style="ellipse;whiteSpace=wrap;html=1;" parent="1" vertex="1">
          <mxGeometry x="160" y="380" width="70" height="40" as="geometry" />
        </mxCell>
        <mxCell id="2nMfQo5Wa2FI_99OlQ16-67" value="user&#39;s&lt;br&gt;playlist ID" style="ellipse;whiteSpace=wrap;html=1;" parent="1" vertex="1">
          <mxGeometry x="160" y="320" width="70" height="40" as="geometry" />
        </mxCell>
        <mxCell id="2nMfQo5Wa2FI_99OlQ16-68" value="" style="endArrow=none;html=1;rounded=0;exitX=1;exitY=0.5;exitDx=0;exitDy=0;entryX=0;entryY=0.5;entryDx=0;entryDy=0;" parent="1" source="2nMfQo5Wa2FI_99OlQ16-67" target="2nMfQo5Wa2FI_99OlQ16-16" edge="1">
          <mxGeometry width="50" height="50" relative="1" as="geometry">
            <mxPoint x="252" y="350" as="sourcePoint" />
            <mxPoint x="302" y="300" as="targetPoint" />
            <Array as="points">
              <mxPoint x="260" y="340" />
              <mxPoint x="260" y="400" />
            </Array>
          </mxGeometry>
        </mxCell>
        <mxCell id="2nMfQo5Wa2FI_99OlQ16-69" value="" style="endArrow=none;html=1;rounded=0;exitX=1;exitY=0.5;exitDx=0;exitDy=0;entryX=0;entryY=0.5;entryDx=0;entryDy=0;" parent="1" source="2nMfQo5Wa2FI_99OlQ16-66" target="2nMfQo5Wa2FI_99OlQ16-16" edge="1">
          <mxGeometry width="50" height="50" relative="1" as="geometry">
            <mxPoint x="270" y="340" as="sourcePoint" />
            <mxPoint x="320" y="290" as="targetPoint" />
          </mxGeometry>
        </mxCell>
        <mxCell id="2nMfQo5Wa2FI_99OlQ16-70" value="" style="endArrow=none;html=1;rounded=0;exitX=1;exitY=0.5;exitDx=0;exitDy=0;" parent="1" source="2nMfQo5Wa2FI_99OlQ16-65" edge="1">
          <mxGeometry width="50" height="50" relative="1" as="geometry">
            <mxPoint x="250" y="380" as="sourcePoint" />
            <mxPoint x="260" y="400" as="targetPoint" />
            <Array as="points">
              <mxPoint x="260" y="460" />
            </Array>
          </mxGeometry>
        </mxCell>
        <mxCell id="2nMfQo5Wa2FI_99OlQ16-71" value="song" style="rounded=0;whiteSpace=wrap;html=1;" parent="1" vertex="1">
          <mxGeometry x="666" y="358" width="80" height="40" as="geometry" />
        </mxCell>
        <mxCell id="2nMfQo5Wa2FI_99OlQ16-72" value="" style="endArrow=none;html=1;rounded=0;entryX=0;entryY=0.5;entryDx=0;entryDy=0;exitX=1;exitY=0.5;exitDx=0;exitDy=0;" parent="1" source="2nMfQo5Wa2FI_99OlQ16-71" target="2nMfQo5Wa2FI_99OlQ16-28" edge="1">
          <mxGeometry width="50" height="50" relative="1" as="geometry">
            <mxPoint x="716" y="368" as="sourcePoint" />
            <mxPoint x="756" y="358" as="targetPoint" />
          </mxGeometry>
        </mxCell>
        <mxCell id="2nMfQo5Wa2FI_99OlQ16-74" value="" style="endArrow=none;html=1;rounded=0;exitX=0;exitY=0.5;exitDx=0;exitDy=0;" parent="1" edge="1">
          <mxGeometry width="50" height="50" relative="1" as="geometry">
            <mxPoint x="796" y="316" as="sourcePoint" />
            <mxPoint x="771" y="316" as="targetPoint" />
            <Array as="points">
              <mxPoint x="781" y="316" />
            </Array>
          </mxGeometry>
        </mxCell>
        <mxCell id="2nMfQo5Wa2FI_99OlQ16-29" value="duration" style="ellipse;whiteSpace=wrap;html=1;" parent="1" vertex="1">
          <mxGeometry x="791" y="296" width="70" height="40" as="geometry" />
        </mxCell>
        <mxCell id="2nMfQo5Wa2FI_99OlQ16-84" value="0,N" style="text;html=1;strokeColor=none;fillColor=none;align=center;verticalAlign=middle;whiteSpace=wrap;rounded=0;" parent="1" vertex="1">
          <mxGeometry x="323" y="20" width="60" height="30" as="geometry" />
        </mxCell>
        <mxCell id="2nMfQo5Wa2FI_99OlQ16-85" value="access" style="rhombus;whiteSpace=wrap;html=1;" parent="1" vertex="1">
          <mxGeometry x="190" y="-155" width="80" height="45" as="geometry" />
        </mxCell>
        <mxCell id="2nMfQo5Wa2FI_99OlQ16-86" value="" style="endArrow=none;html=1;rounded=0;entryX=0.5;entryY=1;entryDx=0;entryDy=0;exitX=0.5;exitY=0;exitDx=0;exitDy=0;" parent="1" source="2nMfQo5Wa2FI_99OlQ16-1" target="2nMfQo5Wa2FI_99OlQ16-85" edge="1">
          <mxGeometry width="50" height="50" relative="1" as="geometry">
            <mxPoint x="240" y="-50" as="sourcePoint" />
            <mxPoint x="290" y="-100" as="targetPoint" />
            <Array as="points">
              <mxPoint x="320" y="-60" />
              <mxPoint x="230" y="-60" />
            </Array>
          </mxGeometry>
        </mxCell>
        <mxCell id="2nMfQo5Wa2FI_99OlQ16-87" value="album" style="rounded=0;whiteSpace=wrap;html=1;" parent="1" vertex="1">
          <mxGeometry x="190" y="-270" width="80" height="40" as="geometry" />
        </mxCell>
        <mxCell id="2nMfQo5Wa2FI_99OlQ16-88" value="artist" style="rounded=0;whiteSpace=wrap;html=1;" parent="1" vertex="1">
          <mxGeometry x="786" y="628" width="80" height="40" as="geometry" />
        </mxCell>
        <mxCell id="2nMfQo5Wa2FI_99OlQ16-89" value="" style="endArrow=none;html=1;rounded=0;exitX=0.5;exitY=0;exitDx=0;exitDy=0;entryX=0.5;entryY=1;entryDx=0;entryDy=0;" parent="1" edge="1">
          <mxGeometry width="50" height="50" relative="1" as="geometry">
            <mxPoint x="230" y="-155" as="sourcePoint" />
            <mxPoint x="230" y="-230" as="targetPoint" />
          </mxGeometry>
        </mxCell>
        <mxCell id="2nMfQo5Wa2FI_99OlQ16-90" value="0,N" style="text;html=1;strokeColor=none;fillColor=none;align=center;verticalAlign=middle;whiteSpace=wrap;rounded=0;" parent="1" vertex="1">
          <mxGeometry x="212" y="-205" width="60" height="30" as="geometry" />
        </mxCell>
        <mxCell id="2nMfQo5Wa2FI_99OlQ16-91" value="0,N" style="text;html=1;strokeColor=none;fillColor=none;align=center;verticalAlign=middle;whiteSpace=wrap;rounded=0;" parent="1" vertex="1">
          <mxGeometry x="277" y="20" width="60" height="30" as="geometry" />
        </mxCell>
        <mxCell id="2nMfQo5Wa2FI_99OlQ16-92" value="contain" style="rhombus;whiteSpace=wrap;html=1;" parent="1" vertex="1">
          <mxGeometry x="786" y="498" width="80" height="45" as="geometry" />
        </mxCell>
        <mxCell id="2nMfQo5Wa2FI_99OlQ16-93" value="" style="endArrow=none;html=1;rounded=0;entryX=0.877;entryY=0.991;entryDx=0;entryDy=0;exitX=0;exitY=0.5;exitDx=0;exitDy=0;entryPerimeter=0;" parent="1" source="2nMfQo5Wa2FI_99OlQ16-92" target="2nMfQo5Wa2FI_99OlQ16-71" edge="1">
          <mxGeometry width="50" height="50" relative="1" as="geometry">
            <mxPoint x="586" y="548" as="sourcePoint" />
            <mxPoint x="636" y="498" as="targetPoint" />
            <Array as="points">
              <mxPoint x="736" y="521" />
              <mxPoint x="736" y="488" />
            </Array>
          </mxGeometry>
        </mxCell>
        <mxCell id="2nMfQo5Wa2FI_99OlQ16-94" value="" style="endArrow=none;html=1;rounded=0;exitX=0.5;exitY=0;exitDx=0;exitDy=0;" parent="1" source="2nMfQo5Wa2FI_99OlQ16-88" edge="1">
          <mxGeometry width="50" height="50" relative="1" as="geometry">
            <mxPoint x="776" y="593" as="sourcePoint" />
            <mxPoint x="826" y="543" as="targetPoint" />
          </mxGeometry>
        </mxCell>
        <mxCell id="2nMfQo5Wa2FI_99OlQ16-95" value="name" style="ellipse;whiteSpace=wrap;html=1;" parent="1" vertex="1">
          <mxGeometry x="903" y="628" width="70" height="40" as="geometry" />
        </mxCell>
        <mxCell id="2nMfQo5Wa2FI_99OlQ16-96" value="" style="endArrow=none;html=1;rounded=0;entryX=0;entryY=0.5;entryDx=0;entryDy=0;" parent="1" target="2nMfQo5Wa2FI_99OlQ16-95" edge="1">
          <mxGeometry width="50" height="50" relative="1" as="geometry">
            <mxPoint x="866" y="648" as="sourcePoint" />
            <mxPoint x="916" y="598" as="targetPoint" />
          </mxGeometry>
        </mxCell>
        <mxCell id="2nMfQo5Wa2FI_99OlQ16-97" value="1,N" style="text;html=1;strokeColor=none;fillColor=none;align=center;verticalAlign=middle;whiteSpace=wrap;rounded=0;" parent="1" vertex="1">
          <mxGeometry x="809" y="574" width="60" height="30" as="geometry" />
        </mxCell>
        <mxCell id="2nMfQo5Wa2FI_99OlQ16-98" value="1,N" style="text;html=1;strokeColor=none;fillColor=none;align=center;verticalAlign=middle;whiteSpace=wrap;rounded=0;" parent="1" vertex="1">
          <mxGeometry x="718" y="448" width="60" height="30" as="geometry" />
        </mxCell>
        <mxCell id="2nMfQo5Wa2FI_99OlQ16-99" value="amount of&lt;br&gt;songs" style="ellipse;whiteSpace=wrap;html=1;" parent="1" vertex="1">
          <mxGeometry x="70" y="-210" width="70" height="40" as="geometry" />
        </mxCell>
        <mxCell id="2nMfQo5Wa2FI_99OlQ16-100" value="name" style="ellipse;whiteSpace=wrap;html=1;" parent="1" vertex="1">
          <mxGeometry x="70" y="-270" width="70" height="40" as="geometry" />
        </mxCell>
        <mxCell id="2nMfQo5Wa2FI_99OlQ16-101" value="album ID" style="ellipse;whiteSpace=wrap;html=1;" parent="1" vertex="1">
          <mxGeometry x="70" y="-330" width="70" height="40" as="geometry" />
        </mxCell>
        <mxCell id="2nMfQo5Wa2FI_99OlQ16-102" value="" style="endArrow=none;html=1;rounded=0;exitX=1;exitY=0.5;exitDx=0;exitDy=0;entryX=0;entryY=0.5;entryDx=0;entryDy=0;" parent="1" source="2nMfQo5Wa2FI_99OlQ16-101" edge="1">
          <mxGeometry width="50" height="50" relative="1" as="geometry">
            <mxPoint x="162" y="-300" as="sourcePoint" />
            <mxPoint x="190" y="-250" as="targetPoint" />
            <Array as="points">
              <mxPoint x="170" y="-310" />
              <mxPoint x="170" y="-250" />
            </Array>
          </mxGeometry>
        </mxCell>
        <mxCell id="2nMfQo5Wa2FI_99OlQ16-103" value="" style="endArrow=none;html=1;rounded=0;exitX=1;exitY=0.5;exitDx=0;exitDy=0;entryX=0;entryY=0.5;entryDx=0;entryDy=0;" parent="1" source="2nMfQo5Wa2FI_99OlQ16-100" edge="1">
          <mxGeometry width="50" height="50" relative="1" as="geometry">
            <mxPoint x="180" y="-310" as="sourcePoint" />
            <mxPoint x="190" y="-250" as="targetPoint" />
          </mxGeometry>
        </mxCell>
        <mxCell id="2nMfQo5Wa2FI_99OlQ16-104" value="" style="endArrow=none;html=1;rounded=0;exitX=1;exitY=0.5;exitDx=0;exitDy=0;" parent="1" source="2nMfQo5Wa2FI_99OlQ16-99" edge="1">
          <mxGeometry width="50" height="50" relative="1" as="geometry">
            <mxPoint x="160" y="-270" as="sourcePoint" />
            <mxPoint x="170" y="-250" as="targetPoint" />
            <Array as="points">
              <mxPoint x="170" y="-190" />
            </Array>
          </mxGeometry>
        </mxCell>
        <mxCell id="2nMfQo5Wa2FI_99OlQ16-114" value="genre" style="rounded=0;whiteSpace=wrap;html=1;" parent="1" vertex="1">
          <mxGeometry x="429.5" y="-200" width="80" height="40" as="geometry" />
        </mxCell>
        <mxCell id="rNiBTRbY0KVdp3hO6eOG-1" value="" style="endArrow=none;html=1;rounded=0;entryX=0.5;entryY=1;entryDx=0;entryDy=0;" parent="1" target="rNiBTRbY0KVdp3hO6eOG-2" edge="1">
          <mxGeometry width="50" height="50" relative="1" as="geometry">
            <mxPoint x="328" y="160" as="sourcePoint" />
            <mxPoint x="328" y="-220" as="targetPoint" />
            <Array as="points">
              <mxPoint x="328" y="-50" />
              <mxPoint x="470" y="-50" />
            </Array>
          </mxGeometry>
        </mxCell>
        <mxCell id="rNiBTRbY0KVdp3hO6eOG-2" value="access" style="rhombus;whiteSpace=wrap;html=1;" parent="1" vertex="1">
          <mxGeometry x="429.5" y="-110" width="80" height="45" as="geometry" />
        </mxCell>
        <mxCell id="rNiBTRbY0KVdp3hO6eOG-3" value="" style="endArrow=none;html=1;rounded=0;entryX=0.5;entryY=1;entryDx=0;entryDy=0;exitX=0.5;exitY=0;exitDx=0;exitDy=0;" parent="1" source="rNiBTRbY0KVdp3hO6eOG-2" target="2nMfQo5Wa2FI_99OlQ16-114" edge="1">
          <mxGeometry width="50" height="50" relative="1" as="geometry">
            <mxPoint x="549.5" y="10" as="sourcePoint" />
            <mxPoint x="599.5" y="-40" as="targetPoint" />
          </mxGeometry>
        </mxCell>
        <mxCell id="rNiBTRbY0KVdp3hO6eOG-5" value="0,N" style="text;html=1;strokeColor=none;fillColor=none;align=center;verticalAlign=middle;whiteSpace=wrap;rounded=0;" parent="1" vertex="1">
          <mxGeometry x="428.5" y="-146" width="60" height="30" as="geometry" />
        </mxCell>
        <mxCell id="rNiBTRbY0KVdp3hO6eOG-6" value="genre ID" style="ellipse;whiteSpace=wrap;html=1;" parent="1" vertex="1">
          <mxGeometry x="344.5" y="-280" width="70" height="40" as="geometry" />
        </mxCell>
        <mxCell id="rNiBTRbY0KVdp3hO6eOG-7" value="name" style="ellipse;whiteSpace=wrap;html=1;" parent="1" vertex="1">
          <mxGeometry x="434.5" y="-280" width="70" height="40" as="geometry" />
        </mxCell>
        <mxCell id="rNiBTRbY0KVdp3hO6eOG-8" value="amount of&lt;br&gt;songs" style="ellipse;whiteSpace=wrap;html=1;" parent="1" vertex="1">
          <mxGeometry x="530.5" y="-280" width="70" height="40" as="geometry" />
        </mxCell>
        <mxCell id="rNiBTRbY0KVdp3hO6eOG-9" value="" style="endArrow=none;html=1;rounded=0;entryX=0.5;entryY=1;entryDx=0;entryDy=0;exitX=0.5;exitY=0;exitDx=0;exitDy=0;" parent="1" source="2nMfQo5Wa2FI_99OlQ16-114" target="rNiBTRbY0KVdp3hO6eOG-8" edge="1">
          <mxGeometry width="50" height="50" relative="1" as="geometry">
            <mxPoint x="569.5" as="sourcePoint" />
            <mxPoint x="619.5" y="-50" as="targetPoint" />
            <Array as="points">
              <mxPoint x="469.5" y="-220" />
              <mxPoint x="565.5" y="-220" />
            </Array>
          </mxGeometry>
        </mxCell>
        <mxCell id="rNiBTRbY0KVdp3hO6eOG-11" value="" style="endArrow=none;html=1;rounded=0;entryX=0.5;entryY=1;entryDx=0;entryDy=0;exitX=0.5;exitY=0;exitDx=0;exitDy=0;" parent="1" source="2nMfQo5Wa2FI_99OlQ16-114" target="rNiBTRbY0KVdp3hO6eOG-7" edge="1">
          <mxGeometry width="50" height="50" relative="1" as="geometry">
            <mxPoint x="569.5" as="sourcePoint" />
            <mxPoint x="619.5" y="-50" as="targetPoint" />
          </mxGeometry>
        </mxCell>
        <mxCell id="rNiBTRbY0KVdp3hO6eOG-12" value="" style="endArrow=none;html=1;rounded=0;entryX=0.5;entryY=1;entryDx=0;entryDy=0;exitX=0.5;exitY=0;exitDx=0;exitDy=0;" parent="1" source="2nMfQo5Wa2FI_99OlQ16-114" target="rNiBTRbY0KVdp3hO6eOG-6" edge="1">
          <mxGeometry width="50" height="50" relative="1" as="geometry">
            <mxPoint x="499.5" y="-150" as="sourcePoint" />
            <mxPoint x="549.5" y="-200" as="targetPoint" />
            <Array as="points">
              <mxPoint x="469.5" y="-220" />
              <mxPoint x="379.5" y="-220" />
            </Array>
          </mxGeometry>
        </mxCell>
        <mxCell id="rNiBTRbY0KVdp3hO6eOG-15" value="song" style="rounded=0;whiteSpace=wrap;html=1;" parent="1" vertex="1">
          <mxGeometry x="631.5" y="-280" width="80" height="40" as="geometry" />
        </mxCell>
        <mxCell id="rNiBTRbY0KVdp3hO6eOG-20" value="" style="endArrow=none;html=1;rounded=0;exitX=1;exitY=0.5;exitDx=0;exitDy=0;entryX=0.5;entryY=1;entryDx=0;entryDy=0;" parent="1" source="2nMfQo5Wa2FI_99OlQ16-114" target="rNiBTRbY0KVdp3hO6eOG-15" edge="1">
          <mxGeometry width="50" height="50" relative="1" as="geometry">
            <mxPoint x="609.5" y="-190" as="sourcePoint" />
            <mxPoint x="654.5" y="-190" as="targetPoint" />
            <Array as="points">
              <mxPoint x="671.5" y="-180" />
            </Array>
          </mxGeometry>
        </mxCell>
        <mxCell id="rNiBTRbY0KVdp3hO6eOG-22" value="contain" style="rhombus;whiteSpace=wrap;html=1;" parent="1" vertex="1">
          <mxGeometry x="591.5" y="-202.5" width="80" height="45" as="geometry" />
        </mxCell>
        <mxCell id="rNiBTRbY0KVdp3hO6eOG-25" value="1,N" style="text;html=1;strokeColor=none;fillColor=none;align=center;verticalAlign=middle;whiteSpace=wrap;rounded=0;" parent="1" vertex="1">
          <mxGeometry x="523.5" y="-202.5" width="60" height="30" as="geometry" />
        </mxCell>
        <mxCell id="rNiBTRbY0KVdp3hO6eOG-26" value="1,N" style="text;html=1;strokeColor=none;fillColor=none;align=center;verticalAlign=middle;whiteSpace=wrap;rounded=0;" parent="1" vertex="1">
          <mxGeometry x="653.5" y="-223" width="60" height="30" as="geometry" />
        </mxCell>
        <mxCell id="aTsHMG4_NkfaAtbkzvUR-1" value="amount of&lt;br&gt;likes" style="ellipse;whiteSpace=wrap;html=1;" parent="1" vertex="1">
          <mxGeometry x="903" y="688" width="70" height="40" as="geometry" />
        </mxCell>
        <mxCell id="aTsHMG4_NkfaAtbkzvUR-2" value="" style="endArrow=none;html=1;rounded=0;entryX=0;entryY=0.5;entryDx=0;entryDy=0;" parent="1" target="aTsHMG4_NkfaAtbkzvUR-1" edge="1">
          <mxGeometry width="50" height="50" relative="1" as="geometry">
            <mxPoint x="886" y="648" as="sourcePoint" />
            <mxPoint x="856" y="698" as="targetPoint" />
            <Array as="points">
              <mxPoint x="886" y="708" />
            </Array>
          </mxGeometry>
        </mxCell>
        <mxCell id="aTsHMG4_NkfaAtbkzvUR-9" value="email" style="ellipse;whiteSpace=wrap;html=1;" parent="1" vertex="1">
          <mxGeometry x="395" y="-20" width="70" height="40" as="geometry" />
        </mxCell>
        <mxCell id="aTsHMG4_NkfaAtbkzvUR-7" value="person" style="rounded=0;whiteSpace=wrap;html=1;" parent="1" vertex="1">
          <mxGeometry x="473" y="80" width="80" height="40" as="geometry" />
        </mxCell>
        <mxCell id="aTsHMG4_NkfaAtbkzvUR-10" value="password" style="ellipse;whiteSpace=wrap;html=1;" parent="1" vertex="1">
          <mxGeometry x="478" y="-20" width="70" height="40" as="geometry" />
        </mxCell>
        <mxCell id="aTsHMG4_NkfaAtbkzvUR-11" value="phone&lt;br&gt;number" style="ellipse;whiteSpace=wrap;html=1;" parent="1" vertex="1">
          <mxGeometry x="565" y="-20" width="70" height="40" as="geometry" />
        </mxCell>
        <mxCell id="aTsHMG4_NkfaAtbkzvUR-12" value="is" style="rhombus;whiteSpace=wrap;html=1;" parent="1" vertex="1">
          <mxGeometry x="429" y="163.5" width="56" height="32.5" as="geometry" />
        </mxCell>
        <mxCell id="aTsHMG4_NkfaAtbkzvUR-13" value="is" style="rhombus;whiteSpace=wrap;html=1;" parent="1" vertex="1">
          <mxGeometry x="541" y="162.75" width="56" height="32.5" as="geometry" />
        </mxCell>
        <mxCell id="aTsHMG4_NkfaAtbkzvUR-14" value="" style="endArrow=none;html=1;rounded=0;exitX=1;exitY=0.5;exitDx=0;exitDy=0;entryX=0;entryY=0.5;entryDx=0;entryDy=0;" parent="1" source="2nMfQo5Wa2FI_99OlQ16-1" target="aTsHMG4_NkfaAtbkzvUR-12" edge="1">
          <mxGeometry width="50" height="50" relative="1" as="geometry">
            <mxPoint x="410" y="150" as="sourcePoint" />
            <mxPoint x="460" y="100" as="targetPoint" />
          </mxGeometry>
        </mxCell>
        <mxCell id="aTsHMG4_NkfaAtbkzvUR-15" value="" style="endArrow=none;html=1;rounded=0;exitX=1;exitY=0.5;exitDx=0;exitDy=0;entryX=0;entryY=0.5;entryDx=0;entryDy=0;" parent="1" edge="1">
          <mxGeometry width="50" height="50" relative="1" as="geometry">
            <mxPoint x="597" y="179.35" as="sourcePoint" />
            <mxPoint x="666" y="179.35" as="targetPoint" />
          </mxGeometry>
        </mxCell>
        <mxCell id="aTsHMG4_NkfaAtbkzvUR-16" value="" style="endArrow=none;html=1;rounded=0;exitX=1;exitY=0.5;exitDx=0;exitDy=0;" parent="1" source="aTsHMG4_NkfaAtbkzvUR-12" edge="1">
          <mxGeometry width="50" height="50" relative="1" as="geometry">
            <mxPoint x="470" y="180" as="sourcePoint" />
            <mxPoint x="500" y="120" as="targetPoint" />
            <Array as="points">
              <mxPoint x="500" y="180" />
            </Array>
          </mxGeometry>
        </mxCell>
        <mxCell id="aTsHMG4_NkfaAtbkzvUR-17" value="" style="endArrow=none;html=1;rounded=0;entryX=0;entryY=0.5;entryDx=0;entryDy=0;exitX=0.589;exitY=1.012;exitDx=0;exitDy=0;exitPerimeter=0;" parent="1" source="aTsHMG4_NkfaAtbkzvUR-7" target="aTsHMG4_NkfaAtbkzvUR-13" edge="1">
          <mxGeometry width="50" height="50" relative="1" as="geometry">
            <mxPoint x="520" y="140" as="sourcePoint" />
            <mxPoint x="520" y="130" as="targetPoint" />
            <Array as="points">
              <mxPoint x="520" y="179" />
            </Array>
          </mxGeometry>
        </mxCell>
        <mxCell id="aTsHMG4_NkfaAtbkzvUR-18" value="1,1" style="text;html=1;strokeColor=none;fillColor=none;align=center;verticalAlign=middle;whiteSpace=wrap;rounded=0;" parent="1" vertex="1">
          <mxGeometry x="454" y="120" width="60" height="30" as="geometry" />
        </mxCell>
        <mxCell id="aTsHMG4_NkfaAtbkzvUR-19" value="1,1" style="text;html=1;strokeColor=none;fillColor=none;align=center;verticalAlign=middle;whiteSpace=wrap;rounded=0;" parent="1" vertex="1">
          <mxGeometry x="502" y="120" width="60" height="30" as="geometry" />
        </mxCell>
        <mxCell id="aTsHMG4_NkfaAtbkzvUR-20" value="1,1" style="text;html=1;strokeColor=none;fillColor=none;align=center;verticalAlign=middle;whiteSpace=wrap;rounded=0;" parent="1" vertex="1">
          <mxGeometry x="370" y="156" width="60" height="30" as="geometry" />
        </mxCell>
        <mxCell id="aTsHMG4_NkfaAtbkzvUR-21" value="1,1" style="text;html=1;strokeColor=none;fillColor=none;align=center;verticalAlign=middle;whiteSpace=wrap;rounded=0;" parent="1" vertex="1">
          <mxGeometry x="597" y="156" width="60" height="30" as="geometry" />
        </mxCell>
        <mxCell id="aTsHMG4_NkfaAtbkzvUR-22" value="podcast" style="rounded=0;whiteSpace=wrap;html=1;" parent="1" vertex="1">
          <mxGeometry x="19" y="610" width="80" height="40" as="geometry" />
        </mxCell>
        <mxCell id="aTsHMG4_NkfaAtbkzvUR-24" value="" style="endArrow=none;html=1;rounded=0;entryX=0.5;entryY=0;entryDx=0;entryDy=0;exitX=0.5;exitY=1;exitDx=0;exitDy=0;" parent="1" source="aTsHMG4_NkfaAtbkzvUR-10" target="aTsHMG4_NkfaAtbkzvUR-7" edge="1">
          <mxGeometry width="50" height="50" relative="1" as="geometry">
            <mxPoint x="310" y="90" as="sourcePoint" />
            <mxPoint x="360" y="40" as="targetPoint" />
          </mxGeometry>
        </mxCell>
        <mxCell id="aTsHMG4_NkfaAtbkzvUR-25" value="" style="endArrow=none;html=1;rounded=0;entryX=0.5;entryY=1;entryDx=0;entryDy=0;exitX=0.5;exitY=1;exitDx=0;exitDy=0;" parent="1" source="aTsHMG4_NkfaAtbkzvUR-9" target="aTsHMG4_NkfaAtbkzvUR-11" edge="1">
          <mxGeometry width="50" height="50" relative="1" as="geometry">
            <mxPoint x="310" y="90" as="sourcePoint" />
            <mxPoint x="360" y="40" as="targetPoint" />
            <Array as="points">
              <mxPoint x="430" y="50" />
              <mxPoint x="600" y="50" />
            </Array>
          </mxGeometry>
        </mxCell>
        <mxCell id="aTsHMG4_NkfaAtbkzvUR-26" value="contain" style="rhombus;whiteSpace=wrap;html=1;" parent="1" vertex="1">
          <mxGeometry x="173" y="610" width="60" height="39" as="geometry" />
        </mxCell>
        <mxCell id="aTsHMG4_NkfaAtbkzvUR-28" value="" style="endArrow=none;html=1;rounded=0;entryX=0;entryY=0.5;entryDx=0;entryDy=0;exitX=1;exitY=0.5;exitDx=0;exitDy=0;" parent="1" source="aTsHMG4_NkfaAtbkzvUR-22" target="aTsHMG4_NkfaAtbkzvUR-26" edge="1">
          <mxGeometry width="50" height="50" relative="1" as="geometry">
            <mxPoint x="124" y="830" as="sourcePoint" />
            <mxPoint x="174" y="780" as="targetPoint" />
          </mxGeometry>
        </mxCell>
        <mxCell id="aTsHMG4_NkfaAtbkzvUR-29" value="1,N" style="text;html=1;strokeColor=none;fillColor=none;align=center;verticalAlign=middle;whiteSpace=wrap;rounded=0;" parent="1" vertex="1">
          <mxGeometry x="109" y="607" width="60" height="30" as="geometry" />
        </mxCell>
        <mxCell id="aTsHMG4_NkfaAtbkzvUR-31" value="" style="endArrow=none;html=1;rounded=0;entryX=0.5;entryY=1;entryDx=0;entryDy=0;exitX=0.5;exitY=0;exitDx=0;exitDy=0;" parent="1" source="2nMfQo5Wa2FI_99OlQ16-42" target="2nMfQo5Wa2FI_99OlQ16-55" edge="1">
          <mxGeometry width="50" height="50" relative="1" as="geometry">
            <mxPoint x="810" y="270" as="sourcePoint" />
            <mxPoint x="860" y="220" as="targetPoint" />
            <Array as="points">
              <mxPoint x="706" y="130" />
              <mxPoint x="747" y="130" />
            </Array>
          </mxGeometry>
        </mxCell>
        <mxCell id="aTsHMG4_NkfaAtbkzvUR-32" value="image" style="ellipse;whiteSpace=wrap;html=1;" parent="1" vertex="1">
          <mxGeometry x="792" y="180" width="70" height="40" as="geometry" />
        </mxCell>
        <mxCell id="aTsHMG4_NkfaAtbkzvUR-34" value="" style="endArrow=none;html=1;rounded=0;" parent="1" target="aTsHMG4_NkfaAtbkzvUR-32" edge="1">
          <mxGeometry width="50" height="50" relative="1" as="geometry">
            <mxPoint x="771" y="260" as="sourcePoint" />
            <mxPoint x="791" y="200" as="targetPoint" />
            <Array as="points">
              <mxPoint x="771" y="200" />
            </Array>
          </mxGeometry>
        </mxCell>
        <mxCell id="Rp40q5ui0bK6pDqNgaUM-1" value="duration" style="ellipse;whiteSpace=wrap;html=1;" parent="1" vertex="1">
          <mxGeometry x="-96" y="670" width="70" height="40" as="geometry" />
        </mxCell>
        <mxCell id="Rp40q5ui0bK6pDqNgaUM-2" value="name" style="ellipse;whiteSpace=wrap;html=1;" parent="1" vertex="1">
          <mxGeometry x="-96" y="610" width="70" height="40" as="geometry" />
        </mxCell>
        <mxCell id="Rp40q5ui0bK6pDqNgaUM-3" value="podcast ID" style="ellipse;whiteSpace=wrap;html=1;" parent="1" vertex="1">
          <mxGeometry x="-96" y="550" width="70" height="40" as="geometry" />
        </mxCell>
        <mxCell id="Rp40q5ui0bK6pDqNgaUM-4" value="" style="endArrow=none;html=1;rounded=0;exitX=1;exitY=0.5;exitDx=0;exitDy=0;entryX=0;entryY=0.5;entryDx=0;entryDy=0;" parent="1" source="Rp40q5ui0bK6pDqNgaUM-3" target="aTsHMG4_NkfaAtbkzvUR-22" edge="1">
          <mxGeometry width="50" height="50" relative="1" as="geometry">
            <mxPoint x="-56" y="680" as="sourcePoint" />
            <mxPoint x="-6" y="630" as="targetPoint" />
            <Array as="points">
              <mxPoint x="-6" y="570" />
              <mxPoint x="-6" y="630" />
            </Array>
          </mxGeometry>
        </mxCell>
        <mxCell id="Rp40q5ui0bK6pDqNgaUM-5" value="" style="endArrow=none;html=1;rounded=0;exitX=1;exitY=0.5;exitDx=0;exitDy=0;entryX=0;entryY=0.5;entryDx=0;entryDy=0;" parent="1" source="Rp40q5ui0bK6pDqNgaUM-2" target="aTsHMG4_NkfaAtbkzvUR-22" edge="1">
          <mxGeometry width="50" height="50" relative="1" as="geometry">
            <mxPoint x="-56" y="680" as="sourcePoint" />
            <mxPoint x="-6" y="630" as="targetPoint" />
          </mxGeometry>
        </mxCell>
        <mxCell id="Rp40q5ui0bK6pDqNgaUM-6" value="" style="endArrow=none;html=1;rounded=0;exitX=1;exitY=0.5;exitDx=0;exitDy=0;entryX=0;entryY=0.5;entryDx=0;entryDy=0;" parent="1" source="Rp40q5ui0bK6pDqNgaUM-1" target="aTsHMG4_NkfaAtbkzvUR-22" edge="1">
          <mxGeometry width="50" height="50" relative="1" as="geometry">
            <mxPoint x="44" y="690" as="sourcePoint" />
            <mxPoint x="94" y="640" as="targetPoint" />
            <Array as="points">
              <mxPoint x="-6" y="690" />
              <mxPoint x="-6" y="630" />
            </Array>
          </mxGeometry>
        </mxCell>
        <mxCell id="1I83P9gCFhn6SeNAj3Vt-1" value="album_ID" style="ellipse;whiteSpace=wrap;html=1;" vertex="1" parent="1">
          <mxGeometry x="792" y="130" width="70" height="40" as="geometry" />
        </mxCell>
        <mxCell id="1I83P9gCFhn6SeNAj3Vt-2" value="" style="endArrow=none;html=1;rounded=0;entryX=0;entryY=0.5;entryDx=0;entryDy=0;" edge="1" parent="1" target="1I83P9gCFhn6SeNAj3Vt-1">
          <mxGeometry width="50" height="50" relative="1" as="geometry">
            <mxPoint x="771" y="210" as="sourcePoint" />
            <mxPoint x="791" y="160" as="targetPoint" />
            <Array as="points">
              <mxPoint x="771" y="150" />
            </Array>
          </mxGeometry>
        </mxCell>
        <mxCell id="1I83P9gCFhn6SeNAj3Vt-3" value="admin id" style="ellipse;whiteSpace=wrap;html=1;" vertex="1" parent="1">
          <mxGeometry x="630" y="80" width="70" height="40" as="geometry" />
        </mxCell>
        <mxCell id="1I83P9gCFhn6SeNAj3Vt-4" value="" style="endArrow=none;html=1;rounded=0;exitX=0.5;exitY=1;exitDx=0;exitDy=0;" edge="1" parent="1" source="1I83P9gCFhn6SeNAj3Vt-3">
          <mxGeometry width="50" height="50" relative="1" as="geometry">
            <mxPoint x="630" y="170" as="sourcePoint" />
            <mxPoint x="710" y="130" as="targetPoint" />
            <Array as="points">
              <mxPoint x="665" y="130" />
            </Array>
          </mxGeometry>
        </mxCell>
        <mxCell id="1I83P9gCFhn6SeNAj3Vt-5" value="person id" style="ellipse;whiteSpace=wrap;html=1;" vertex="1" parent="1">
          <mxGeometry x="160" y="100" width="70" height="40" as="geometry" />
        </mxCell>
        <mxCell id="1I83P9gCFhn6SeNAj3Vt-6" value="" style="endArrow=none;html=1;rounded=0;exitX=1;exitY=0.5;exitDx=0;exitDy=0;entryX=0;entryY=0.5;entryDx=0;entryDy=0;" edge="1" parent="1" source="1I83P9gCFhn6SeNAj3Vt-5" target="2nMfQo5Wa2FI_99OlQ16-1">
          <mxGeometry width="50" height="50" relative="1" as="geometry">
            <mxPoint x="470" y="170" as="sourcePoint" />
            <mxPoint x="250" y="180" as="targetPoint" />
            <Array as="points">
              <mxPoint x="260" y="120" />
              <mxPoint x="260" y="180" />
            </Array>
          </mxGeometry>
        </mxCell>
        <mxCell id="1I83P9gCFhn6SeNAj3Vt-7" value="user&#39;s playlist ID" style="ellipse;whiteSpace=wrap;html=1;" vertex="1" parent="1">
          <mxGeometry x="163" y="215" width="70" height="40" as="geometry" />
        </mxCell>
        <mxCell id="1I83P9gCFhn6SeNAj3Vt-8" value="" style="endArrow=none;html=1;rounded=0;exitX=1;exitY=0.5;exitDx=0;exitDy=0;entryX=0;entryY=0.5;entryDx=0;entryDy=0;" edge="1" parent="1" source="1I83P9gCFhn6SeNAj3Vt-7" target="2nMfQo5Wa2FI_99OlQ16-1">
          <mxGeometry width="50" height="50" relative="1" as="geometry">
            <mxPoint x="252" y="259" as="sourcePoint" />
            <mxPoint x="302" y="209" as="targetPoint" />
            <Array as="points">
              <mxPoint x="260" y="235" />
              <mxPoint x="260" y="180" />
            </Array>
          </mxGeometry>
        </mxCell>
        <mxCell id="1I83P9gCFhn6SeNAj3Vt-9" value="song ID" style="ellipse;whiteSpace=wrap;html=1;" vertex="1" parent="1">
          <mxGeometry x="160" y="498" width="70" height="40" as="geometry" />
        </mxCell>
        <mxCell id="1I83P9gCFhn6SeNAj3Vt-10" value="" style="endArrow=none;html=1;rounded=0;exitX=1;exitY=0.5;exitDx=0;exitDy=0;" edge="1" parent="1" source="1I83P9gCFhn6SeNAj3Vt-9">
          <mxGeometry width="50" height="50" relative="1" as="geometry">
            <mxPoint x="273" y="508" as="sourcePoint" />
            <mxPoint x="260" y="450" as="targetPoint" />
            <Array as="points">
              <mxPoint x="260" y="518" />
            </Array>
          </mxGeometry>
        </mxCell>
        <mxCell id="1I83P9gCFhn6SeNAj3Vt-11" value="artist id" style="ellipse;whiteSpace=wrap;html=1;" vertex="1" parent="1">
          <mxGeometry x="871" y="390" width="70" height="40" as="geometry" />
        </mxCell>
        <mxCell id="1I83P9gCFhn6SeNAj3Vt-12" value="" style="endArrow=none;html=1;rounded=0;entryX=0;entryY=0.5;entryDx=0;entryDy=0;" edge="1" parent="1" target="1I83P9gCFhn6SeNAj3Vt-11">
          <mxGeometry width="50" height="50" relative="1" as="geometry">
            <mxPoint x="771" y="410" as="sourcePoint" />
            <mxPoint x="881" y="340" as="targetPoint" />
          </mxGeometry>
        </mxCell>
        <mxCell id="1I83P9gCFhn6SeNAj3Vt-13" value="genre id" style="ellipse;whiteSpace=wrap;html=1;" vertex="1" parent="1">
          <mxGeometry x="871" y="320" width="70" height="40" as="geometry" />
        </mxCell>
        <mxCell id="1I83P9gCFhn6SeNAj3Vt-14" value="" style="endArrow=none;html=1;rounded=0;entryX=0;entryY=0.5;entryDx=0;entryDy=0;" edge="1" parent="1">
          <mxGeometry width="50" height="50" relative="1" as="geometry">
            <mxPoint x="771" y="340" as="sourcePoint" />
            <mxPoint x="871" y="340" as="targetPoint" />
          </mxGeometry>
        </mxCell>
        <mxCell id="1I83P9gCFhn6SeNAj3Vt-15" value="artist id" style="ellipse;whiteSpace=wrap;html=1;" vertex="1" parent="1">
          <mxGeometry x="903" y="560" width="70" height="40" as="geometry" />
        </mxCell>
        <mxCell id="1I83P9gCFhn6SeNAj3Vt-16" value="" style="endArrow=none;html=1;rounded=0;exitX=1;exitY=0.5;exitDx=0;exitDy=0;entryX=0;entryY=0.5;entryDx=0;entryDy=0;" edge="1" parent="1" source="2nMfQo5Wa2FI_99OlQ16-88" target="1I83P9gCFhn6SeNAj3Vt-15">
          <mxGeometry width="50" height="50" relative="1" as="geometry">
            <mxPoint x="920" y="550" as="sourcePoint" />
            <mxPoint x="970" y="500" as="targetPoint" />
            <Array as="points">
              <mxPoint x="890" y="648" />
              <mxPoint x="890" y="580" />
            </Array>
          </mxGeometry>
        </mxCell>
        <mxCell id="1I83P9gCFhn6SeNAj3Vt-17" value="artist id" style="ellipse;whiteSpace=wrap;html=1;" vertex="1" parent="1">
          <mxGeometry x="70" y="-150" width="70" height="40" as="geometry" />
        </mxCell>
        <mxCell id="1I83P9gCFhn6SeNAj3Vt-18" value="" style="endArrow=none;html=1;rounded=0;exitX=1;exitY=0.5;exitDx=0;exitDy=0;" edge="1" parent="1" source="1I83P9gCFhn6SeNAj3Vt-17">
          <mxGeometry width="50" height="50" relative="1" as="geometry">
            <mxPoint x="320" y="-140" as="sourcePoint" />
            <mxPoint x="170" y="-200" as="targetPoint" />
            <Array as="points">
              <mxPoint x="170" y="-130" />
            </Array>
          </mxGeometry>
        </mxCell>
        <mxCell id="1I83P9gCFhn6SeNAj3Vt-19" value="" style="endArrow=none;html=1;rounded=0;exitX=1;exitY=0.5;exitDx=0;exitDy=0;entryX=0.25;entryY=1;entryDx=0;entryDy=0;" edge="1" parent="1" source="aTsHMG4_NkfaAtbkzvUR-26" target="2nMfQo5Wa2FI_99OlQ16-16">
          <mxGeometry width="50" height="50" relative="1" as="geometry">
            <mxPoint x="220" y="530" as="sourcePoint" />
            <mxPoint x="270" y="480" as="targetPoint" />
            <Array as="points">
              <mxPoint x="300" y="630" />
            </Array>
          </mxGeometry>
        </mxCell>
        <mxCell id="1I83P9gCFhn6SeNAj3Vt-20" value="1,N" style="text;html=1;strokeColor=none;fillColor=none;align=center;verticalAlign=middle;whiteSpace=wrap;rounded=0;" vertex="1" parent="1">
          <mxGeometry x="242" y="607" width="60" height="30" as="geometry" />
        </mxCell>
        <mxCell id="1I83P9gCFhn6SeNAj3Vt-22" value="podcast ID" style="ellipse;whiteSpace=wrap;html=1;" vertex="1" parent="1">
          <mxGeometry x="160" y="550" width="70" height="40" as="geometry" />
        </mxCell>
        <mxCell id="1I83P9gCFhn6SeNAj3Vt-23" value="" style="endArrow=none;html=1;rounded=0;exitX=1;exitY=0.5;exitDx=0;exitDy=0;" edge="1" parent="1" source="1I83P9gCFhn6SeNAj3Vt-22">
          <mxGeometry width="50" height="50" relative="1" as="geometry">
            <mxPoint x="420" y="480" as="sourcePoint" />
            <mxPoint x="260" y="500" as="targetPoint" />
            <Array as="points">
              <mxPoint x="260" y="570" />
            </Array>
          </mxGeometry>
        </mxCell>
      </root>
    </mxGraphModel>
  </diagram>
</mxfile>
